<?xml version="1.0" encoding="UTF-8" standalone="no"?>
<svg width="16px" height="16px" viewBox="0 0 16 16" version="1.1" xmlns="http://www.w3.org/2000/svg" xmlns:xlink="http://www.w3.org/1999/xlink" xmlns:sketch="http://www.bohemiancoding.com/sketch/ns">
    <!-- Generator: Sketch 3.5.2 (25235) - http://www.bohemiancoding.com/sketch -->
    <title>epic</title>
    <desc>Created with Sketch.</desc>
    <defs></defs>
    <g id="Page-1" stroke="none" stroke-width="1" fill="none" fill-rule="evenodd" sketch:type="MSPage">
        <g id="epic" sketch:type="MSArtboardGroup">
            <g id="Epic" sketch:type="MSLayerGroup" transform="translate(1.000000, 1.000000)">
                <rect id="Rectangle-36" fill="#904EE2" sketch:type="MSShapeGroup" x="0" y="0" width="14" height="14" rx="2"></rect>
                <g id="Page-1" transform="translate(4.000000, 3.000000)" fill="#FFFFFF" sketch:type="MSShapeGroup">
                    <path d="M5.9233,3.7566 L5.9213,3.7526 C5.9673,3.6776 6.0003,3.5946 6.0003,3.4996 C6.0003,3.2236 5.7763,2.9996 5.5003,2.9996 L3.0003,2.9996 L3.0003,0.4996 C3.0003,0.2236 2.7763,-0.0004 2.5003,-0.0004 C2.3283,-0.0004 2.1853,0.0916 2.0953,0.2226 C2.0673,0.2636 2.0443,0.3056 2.0293,0.3526 L0.0813,4.2366 L0.0833,4.2396 C0.0353,4.3166 0.0003,4.4026 0.0003,4.4996 C0.0003,4.7766 0.2243,4.9996 0.5003,4.9996 L3.0003,4.9996 L3.0003,7.4996 C3.0003,7.7766 3.2243,7.9996 3.5003,7.9996 C3.6793,7.9996 3.8293,7.9006 3.9183,7.7586 L3.9213,7.7596 L3.9343,7.7336 C3.9453,7.7126 3.9573,7.6936 3.9653,7.6716 L5.9233,3.7566 Z" id="Fill-1"></path>
                </g>
            </g>
        </g>
    </g>
</svg>