<svg xmlns="http://www.w3.org/2000/svg" width="62" height="62" viewBox="0 0 62 62"><defs><style>.a{fill:#343434;}</style></defs><g transform="translate(-16 -16)"><path class="a" d="M227.115,176.307h2.077a1.038,1.038,0,1,1,0,2.077h-4.154v2.077h2.077v2.077h2.077v-2.077h0a3.115,3.115,0,0,0,0-6.23h-2.077a1.038,1.038,0,1,1,0-2.077h4.154v-2.077h-2.077V168h-2.077v2.077a3.115,3.115,0,1,0,0,6.23Z" transform="translate(-181.154 -132.396)"/><path class="a" d="M17.033,117.172h6.2a1.033,1.033,0,0,0,1.033-1.033h.7a16.651,16.651,0,0,0,9.638,3.1h5.167v3.1a1.033,1.033,0,0,0-1.033,1.033v9.293a1.033,1.033,0,0,0,1.033,1.033H54.233a1.033,1.033,0,0,0,1.033-1.033v-9.293a1.033,1.033,0,0,0-1.033-1.033h-.291a13.245,13.245,0,0,0,1.049-3.1h5.442a16.654,16.654,0,0,0,9.323-2.881,1.033,1.033,0,0,0,1.01.816h6.2A1.033,1.033,0,0,0,78,116.139V103.749a1.033,1.033,0,0,0-1.033-1.033h-6.2a1.033,1.033,0,0,0-1.033,1.033v2.065h-.782a11.535,11.535,0,0,0-7.673,2.9,4.15,4.15,0,0,0-1.878-2.34V95.488a10.344,10.344,0,0,0-7.613-9.96l.093-.14a7.824,7.824,0,0,0,1.32-4.356A1.033,1.033,0,0,0,52.167,80H41.833A1.033,1.033,0,0,0,40.8,81.033a7.824,7.824,0,0,0,1.32,4.356l.093.14a10.343,10.343,0,0,0-7.613,9.96v10.2a.831.831,0,0,1-.462.747,2.886,2.886,0,0,0-1.382,1.479,11.538,11.538,0,0,0-6.674-2.1H24.267v-2.065a1.033,1.033,0,0,0-1.033-1.033h-6.2A1.033,1.033,0,0,0,16,103.749v12.391a1.033,1.033,0,0,0,1.033,1.033ZM71.8,104.781h4.133v10.326H71.8ZM53.2,131.628H40.8V124.4H53.2Zm-11.367-9.293v-9.293h7.23A8.02,8.02,0,0,0,47,118.435v1.21h2.067v-1.21a5.976,5.976,0,0,1,1.764-4.255,1.032,1.032,0,0,0,.3-.73v-3.505a1.033,1.033,0,0,1,2.067,0v6.6a11.217,11.217,0,0,1-1.6,5.788Zm27.118-14.456h.782v6.2h0a1.034,1.034,0,0,0-.62.206,14.564,14.564,0,0,1-8.68,2.891H55.25c.01-.208.016-.416.016-.625l6.2-1.44v-2.065H56.12a.957.957,0,0,1-.853-1.033h0a1.124,1.124,0,0,1,.283-.764.785.785,0,0,1,.571-.268h5.346a1.028,1.028,0,0,0,.73-.3,9.492,9.492,0,0,1,6.754-2.8ZM43.839,84.243a5.768,5.768,0,0,1-.88-2.178h8.082a5.767,5.767,0,0,1-.88,2.178l-.622.932c-.157-.007-.314-.012-.472-.012H44.933c-.158,0-.316,0-.472.012Zm-8.777,24.043a2.884,2.884,0,0,0,1.6-2.594v-10.2a8.273,8.273,0,0,1,8.267-8.26h4.133a8.273,8.273,0,0,1,8.267,8.26v10.326H55.267v2.065h2.067a2.066,2.066,0,0,1,1.787,1.032h-3a2.778,2.778,0,0,0-.975.176,3.1,3.1,0,0,0-6.078.857v1.033H40.624a3.1,3.1,0,0,0-2.924-2.065H34.609a.83.83,0,0,1,.453-.626Zm-8.98-.407a9.492,9.492,0,0,1,6.754,2.8,1.034,1.034,0,0,0,.731.3H37.7a1.033,1.033,0,1,1,0,2.065H32.533v2.065h7.233v2.065H34.6a14.564,14.564,0,0,1-8.68-2.891,1.034,1.034,0,0,0-.62-.207H24.267v-6.2Zm-8.015-3.1H22.2v10.326H18.067Z" transform="translate(0 -55.693)"/><rect class="a" width="4" height="2" transform="translate(28.932 32.915)"/><rect class="a" width="4" height="2" transform="translate(60.766 32.915)"/><rect class="a" width="3.115" height="2.077" transform="translate(56.487 22.639) rotate(-45)"/><rect class="a" width="2" height="3" transform="translate(45.849 16)"/><rect class="a" width="2.077" height="3.115" transform="translate(33.842 21.904) rotate(-44.998)"/></g></svg>