<svg xmlns="http://www.w3.org/2000/svg" width="62" height="62" viewBox="0 0 62 62">
<defs><style>.a{fill:#343434;}</style></defs>
<path class="a" d="M13,47h3v3H14V49H11a1,1,0,0,0,0,2h2a3,3,0,0,1,0,6v2H11V57H8V54h2v1h3a1,1,0,0,0,0-2H11a3,3,0,0,1,0-6V45h2ZM53,15H51v2a3,3,0,0,0,0,6h2a1,1,0,0,1,0,2H50V24H48v3h3v2h2V27a3,3,0,0,0,0-6H51a1,1,0,0,1,0-2h3v1h2V17H53Zm10,7A11,11,0,1,1,52,11,11.013,11.013,0,0,1,63,22Zm-2,0a9,9,0,1,0-9,9A9.01,9.01,0,0,0,61,22ZM52,35H63V46H61V38.414l-4,4V61h6v2H12A10.991,10.991,0,0,1,5.7,43H1V38.495a9.053,9.053,0,0,1,5.769-8.4l7.388-2.841.618-2.473A8.018,8.018,0,0,1,11.264,20H11a3.987,3.987,0,0,1-3.248-6.317A8.733,8.733,0,0,1,10.909,2.859,11.035,11.035,0,0,1,17.048,1h3.064A21.081,21.081,0,0,1,27.98,2.516L30.515,3.53,28.558,6.466,31,7.279V8.838a20.468,20.468,0,0,1-.635,5.018A3.986,3.986,0,0,1,27,20h-.263a8.013,8.013,0,0,1-3.511,4.781l.618,2.473,7.388,2.841A9.054,9.054,0,0,1,37,38.495V43h-18.7a11.05,11.05,0,0,1,3.922,4.974l3.737-3.27,8.954,6.964L42,44.586l5,5L59.586,37H52ZM47,52.414l-2-2V61h4V50.414Zm-5-5-3,3V61h4V48.414Zm-9,5.3V61h4V52.414l-1.917,1.917ZM27,61h4V51.156l-4-3.111Zm2-45a2,2,0,0,0-2-2v4A2,2,0,0,0,29,16ZM11,18V14a2,2,0,0,0,0,4Zm1.293-7.708A4.387,4.387,0,0,1,15.414,9h7.172a4.355,4.355,0,0,1,4.164,3H27a3.968,3.968,0,0,1,1.654.368A18.5,18.5,0,0,0,29,8.838V8.721L25.441,7.535l2.043-3.064-.246-.1A19.094,19.094,0,0,0,20.112,3H17.048a9.042,9.042,0,0,0-5.029,1.522,6.751,6.751,0,0,0-2.648,7.833A3.964,3.964,0,0,1,11,12h.25a4.382,4.382,0,0,1,1.043-1.708ZM19,24a6.006,6.006,0,0,0,6-6V13.414A2.414,2.414,0,0,0,22.586,11H15.414A2.416,2.416,0,0,0,13,13.414V18A6.008,6.008,0,0,0,19,24ZM16.62,25.638l-.575,2.3a3.15,3.15,0,0,0,5.91,0l-.576-2.3a8.012,8.012,0,0,1-4.759,0ZM35,41V38.495a7.044,7.044,0,0,0-4.487-6.534L23.544,29.28a5.155,5.155,0,0,1-9.087,0l-6.97,2.681A7.042,7.042,0,0,0,3,38.495V41ZM12,61a9,9,0,1,0-9-9A9.01,9.01,0,0,0,12,61Zm6.305,0H25V48.2l-2.175,1.9A10.878,10.878,0,0,1,18.305,61ZM55,44.414l-4,4V61h4Z" transform="translate(-1 -1)"/>
</svg>