<svg xmlns="http://www.w3.org/2000/svg" viewBox="0 0 615 134">
  <defs>
    <style>
      .cls-1 {
        fill: #80d0ff;
      }

      .cls-2 {
        fill: #fff;
      }
    </style>
  </defs>
  <title>coreui react</title>
  <g id="Warstwa_1" data-name="Warstwa 1">
    <g>
      <path class="cls-1" d="M361.773,90.1513,353.0054,69.415a.25.25,0,0,0-.2558-.1914h-9.9844a.2263.2263,0,0,0-.2559.2558v20.543a.5659.5659,0,0,1-.64.6406h-1.2163a.5654.5654,0,0,1-.64-.6406v-43.52a.5656.5656,0,0,1,.64-.64h12.5444a9.9785,9.9785,0,0,1,7.7437,3.2315,12.2042,12.2042,0,0,1,2.9443,8.5449,12.4389,12.4389,0,0,1-2.24,7.584,9.3707,9.3707,0,0,1-6.08,3.7441c-.1709.0859-.2139.1914-.1279.3193l8.7041,20.6084.0639.2559c0,.3418-.1919.5117-.5757.5117h-1.1523A.7029.7029,0,0,1,361.773,90.1513Zm-19.2637-41.793V66.8544a.2263.2263,0,0,0,.2559.2569h10.3037a7.6687,7.6687,0,0,0,6.0166-2.5928,9.878,9.878,0,0,0,2.3037-6.8154,10.2858,10.2858,0,0,0-2.272-6.9756,7.601,7.601,0,0,0-6.0483-2.625H342.7652A.2263.2263,0,0,0,342.5093,48.3583Z"/>
      <path class="cls-1" d="M401.0816,48.1025H381.05a.2263.2263,0,0,0-.2559.2558V66.8544a.2263.2263,0,0,0,.2559.2569h13.8237a.5663.5663,0,0,1,.6406.64v.96a.566.566,0,0,1-.6406.64H381.05a.2263.2263,0,0,0-.2559.2559V88.1669a.2259.2259,0,0,0,.2559.2559h20.0317a.567.567,0,0,1,.6406.6406v.959a.5663.5663,0,0,1-.6406.6406H378.938a.5656.5656,0,0,1-.64-.6406v-43.52a.5657.5657,0,0,1,.64-.64h22.1436a.5664.5664,0,0,1,.6406.64v.96A.566.566,0,0,1,401.0816,48.1025Z"/>
      <path class="cls-1" d="M438.8023,90.1513l-2.4316-8.832a.2962.2962,0,0,0-.32-.1924H419.2828a.2946.2946,0,0,0-.32.1924l-2.3682,8.7676a.6576.6576,0,0,1-.7036.5761h-1.2163a.5883.5883,0,0,1-.4795-.1914.5822.5822,0,0,1-.0962-.5127L426.13,46.3749a.6436.6436,0,0,1,.7041-.5117h1.6a.6442.6442,0,0,1,.7041.5117l12.16,43.584.0644.1924c0,.3418-.2138.5117-.64.5117h-1.2163A.6428.6428,0,0,1,438.8023,90.1513ZM419.6988,78.9189a.3026.3026,0,0,0,.2236.0957h15.4883a.3039.3039,0,0,0,.2236-.0957c.0645-.0645.0742-.1172.0323-.16L427.7945,49.831c-.043-.085-.086-.1279-.1279-.1279s-.086.0429-.128.1279l-7.872,28.9277C419.6236,78.8017,419.6343,78.8544,419.6988,78.9189Z"/>
      <path class="cls-1" d="M456.357,87.9111a11.6374,11.6374,0,0,1-3.3277-8.7041V57.19a11.4135,11.4135,0,0,1,3.36-8.5752,12.0908,12.0908,0,0,1,8.8-3.2647,12.2528,12.2528,0,0,1,8.8643,3.2324,11.3906,11.3906,0,0,1,3.36,8.6075v.6406a.5663.5663,0,0,1-.6406.6406l-1.28.0635q-.6408,0-.64-.5762v-.832a9.2874,9.2874,0,0,0-2.6558-6.9121,10.67,10.67,0,0,0-14.0161,0,9.2838,9.2838,0,0,0-2.6562,6.9121V79.3994a9.2824,9.2824,0,0,0,2.6562,6.9121,10.6734,10.6734,0,0,0,14.0161,0,9.286,9.286,0,0,0,2.6558-6.9121v-.7686q0-.5757.64-.5752l1.28.0635a.5663.5663,0,0,1,.6406.64V79.27a11.4976,11.4976,0,0,1-3.36,8.6407,13.6262,13.6262,0,0,1-17.6963,0Z"/>
      <path class="cls-1" d="M514.1929,46.5029v.96a.5655.5655,0,0,1-.64.64h-10.752a.2262.2262,0,0,0-.2558.2558V90.0224a.5663.5663,0,0,1-.6407.6406H500.689a.5654.5654,0,0,1-.64-.6406V48.3583a.2267.2267,0,0,0-.2559-.2558H489.6172a.5653.5653,0,0,1-.64-.64v-.96a.5657.5657,0,0,1,.64-.64h23.9361A.5659.5659,0,0,1,514.1929,46.5029Z"/>
      <path class="cls-1" d="M521.8218,89.5107a2.8346,2.8346,0,0,1-.8-2.0479,2.9233,2.9233,0,0,1,.8-2.1123,2.7577,2.7577,0,0,1,2.08-.832,2.8467,2.8467,0,0,1,2.9439,2.9443,2.7544,2.7544,0,0,1-.8321,2.08,2.9213,2.9213,0,0,1-2.1118.8A2.754,2.754,0,0,1,521.8218,89.5107Z"/>
      <path class="cls-1" d="M542.1607,88.0068a11.3094,11.3094,0,0,1-3.2-8.416V74.1513a.5663.5663,0,0,1,.64-.6406h1.2159a.5667.5667,0,0,1,.64.6406v5.5039a9.1437,9.1437,0,0,0,2.5283,6.72,8.9735,8.9735,0,0,0,6.6875,2.56,8.7894,8.7894,0,0,0,9.28-9.2793V46.5029a.5655.5655,0,0,1,.64-.64h1.2163a.5661.5661,0,0,1,.64.64V79.5908a11.2516,11.2516,0,0,1-3.2324,8.416,13.0622,13.0622,0,0,1-17.0557,0Z"/>
      <path class="cls-1" d="M580.1055,88.1025a10.4824,10.4824,0,0,1-3.36-8.127V78.1826a.5655.5655,0,0,1,.64-.64h1.0884a.566.566,0,0,1,.64.64v1.6005a8.5438,8.5438,0,0,0,2.752,6.6553,10.5357,10.5357,0,0,0,7.36,2.4961,9.8761,9.8761,0,0,0,6.9761-2.3672,8.2153,8.2153,0,0,0,2.56-6.3359,8.3974,8.3974,0,0,0-1.12-4.416,11.3828,11.3828,0,0,0-3.3282-3.3926,71.6257,71.6257,0,0,0-6.1762-3.7119,71.3024,71.3024,0,0,1-6.24-3.84,12.174,12.174,0,0,1-3.4238-3.6806,10.2567,10.2567,0,0,1-1.28-5.3438,9.8592,9.8592,0,0,1,3.0718-7.7441,12.0122,12.0122,0,0,1,8.32-2.752q5.6953,0,8.96,3.1045a10.8233,10.8233,0,0,1,3.2641,8.2236v1.6006a.5658.5658,0,0,1-.64.64h-1.1519a.5653.5653,0,0,1-.64-.64V56.8076a8.8646,8.8646,0,0,0-2.624-6.6885,9.9938,9.9938,0,0,0-7.232-2.5283,9.3654,9.3654,0,0,0-6.5278,2.1445,7.8216,7.8216,0,0,0-2.3682,6.1113,7.8007,7.8007,0,0,0,1.0245,4.16,10.3761,10.3761,0,0,0,3.0078,3.04,62.8289,62.8289,0,0,0,5.9521,3.4883,71.0575,71.0575,0,0,1,6.72,4.2559,13.4537,13.4537,0,0,1,3.648,3.9365,10.0487,10.0487,0,0,1,1.28,5.1836,10.7141,10.7141,0,0,1-3.2637,8.1914q-3.2637,3.0732-8.832,3.0722Q583.4649,91.1747,580.1055,88.1025Z"/>
    </g>
    <g>
      <g>
        <path class="cls-2" d="M99.59,36.0577l-39-22.5167a12,12,0,0,0-12,0l-39,22.5166a12.0337,12.0337,0,0,0-6,10.3924V91.4833a12.0331,12.0331,0,0,0,6,10.3923l39,22.5167a12,12,0,0,0,12,0l39-22.5167a12.0333,12.0333,0,0,0,6-10.3923V46.45A12.0336,12.0336,0,0,0,99.59,36.0577Zm-2,55.4256a4,4,0,0,1-2,3.4641l-39,22.5167a4.0006,4.0006,0,0,1-4,0l-39-22.5167a4,4,0,0,1-2-3.4641V46.45a4,4,0,0,1,2-3.4642l39-22.5166a4,4,0,0,1,4,0l39,22.5166a4,4,0,0,1,2,3.4642Z"/>
        <path class="cls-2" d="M77.612,82.0046H74.746a4.001,4.001,0,0,0-1.9247.4934L55.5406,91.9833,35.59,80.4648V57.4872L55.54,45.9687l17.2893,9.4549a3.9993,3.9993,0,0,0,1.9192.4906h2.8632a2,2,0,0,0,2-2V51.2024a2,2,0,0,0-1.04-1.7547L59.3833,38.9521a8.0389,8.0389,0,0,0-7.8427.09L31.59,50.56a8.0245,8.0245,0,0,0-4,6.9287v22.976a8,8,0,0,0,4,6.9283l19.95,11.5186a8.0427,8.0427,0,0,0,7.8432.0879l19.19-10.5312a2,2,0,0,0,1.0378-1.7533v-2.71A2,2,0,0,0,77.612,82.0046Z"/>
      </g>
      <g>
        <path class="cls-2" d="M172.3351,45.3618a15.0166,15.0166,0,0,0-15,14.9995V77.6387a15,15,0,0,0,30,0V60.3613A15.0166,15.0166,0,0,0,172.3351,45.3618Zm7,32.2769a7,7,0,0,1-14,0V60.3613a7,7,0,0,1,14,0Z"/>
        <path class="cls-2" d="M135.6692,53.4211a7.01,7.01,0,0,1,7.8681,6.0752.9892.9892,0,0,0,.9842.865h6.03a1.0109,1.0109,0,0,0,.9988-1.0971,15.0183,15.0183,0,0,0-15.7162-13.8837A15.2881,15.2881,0,0,0,121.59,60.7968V77.2037A15.288,15.288,0,0,0,135.8346,92.62a15.0184,15.0184,0,0,0,15.7162-13.8842,1.0109,1.0109,0,0,0-.9988-1.0971h-6.03a.9892.9892,0,0,0-.9842.865,7.0106,7.0106,0,0,1-7.868,6.0757,7.1642,7.1642,0,0,1-6.0789-7.1849V60.6057A7.1638,7.1638,0,0,1,135.6692,53.4211Z"/>
        <path class="cls-2" d="M218.5125,72.9277a12.1584,12.1584,0,0,0,7.1843-11.0771V58.1494A12.1494,12.1494,0,0,0,213.5474,46H196.59a1,1,0,0,0-1,1V91a1,1,0,0,0,1,1h6a1,1,0,0,0,1-1V74h6.6215l7.9154,17.4138a1,1,0,0,0,.91.5862h6.5912a1,1,0,0,0,.91-1.4138Zm-.8157-11.0771A4.1538,4.1538,0,0,1,213.5479,66h-9.8511V54h9.8511a4.1538,4.1538,0,0,1,4.1489,4.1494Z"/>
        <path class="cls-2" d="M260.59,46h-26a1,1,0,0,0-1,1V91a1,1,0,0,0,1,1h26a1,1,0,0,0,1-1V85a1,1,0,0,0-1-1h-19V72h13a1,1,0,0,0,1-1V65a1,1,0,0,0-1-1h-13V54h19a1,1,0,0,0,1-1V47A1,1,0,0,0,260.59,46Z"/>
        <path class="cls-2" d="M298.59,46h-6a1,1,0,0,0-1,1V69.6475a7.0066,7.0066,0,1,1-14,0V47a1,1,0,0,0-1-1h-6a1,1,0,0,0-1,1V69.6475a15.0031,15.0031,0,1,0,30,0V47A1,1,0,0,0,298.59,46Z"/>
        <rect class="cls-2" x="307.5904" y="46" width="8" height="38" rx="1"/>
      </g>
    </g>
  </g>
</svg>
