<svg id="Warstwa_1" data-name="Warstwa 1" xmlns="http://www.w3.org/2000/svg" viewBox="0 0 458 178">
  <defs>
    <style>
      .cls-2 {
        fill: #fff;
      }
    </style>
  </defs>
  <title>Base_PRO_negative</title>
  <g>
    <path class="cls-2" d="M128,56.1244,89,33.6077a12,12,0,0,0-12,0L38,56.1243a12.0339,12.0339,0,0,0-6,10.3924V111.55a12.0333,12.0333,0,0,0,6,10.3923L77,144.459a12,12,0,0,0,12,0l39-22.5167a12.0333,12.0333,0,0,0,6-10.3923V66.5167A12.0336,12.0336,0,0,0,128,56.1244ZM126,111.55a4,4,0,0,1-2,3.4641L85,137.5308a4,4,0,0,1-4,0L42,115.0141a4,4,0,0,1-2-3.4641V66.5167a4,4,0,0,1,2-3.4641L81,40.5359a4,4,0,0,1,4,0l39,22.5167a4,4,0,0,1,2,3.4641Z"/>
    <path class="cls-2" d="M106.0216,102.0713h-2.866a3.9993,3.9993,0,0,0-1.9246.4935L83.95,112.05,64,100.5315V77.554L83.95,66.0354,101.239,75.49a4.0007,4.0007,0,0,0,1.9192.4905h2.8633a2,2,0,0,0,2-2V71.2691a2,2,0,0,0-1.04-1.7547L87.793,59.0188a8.0391,8.0391,0,0,0-7.8428.09L60,70.6262A8.0245,8.0245,0,0,0,56,77.5549v22.976a8,8,0,0,0,4,6.9283l19.95,11.5186a8.0429,8.0429,0,0,0,7.8433.0879l19.19-10.5312a2,2,0,0,0,1.0377-1.7533v-2.71A2,2,0,0,0,106.0216,102.0713Z"/>
    <path class="cls-2" d="M200.7446,65.4285a15.0166,15.0166,0,0,0-15,14.9995V97.7054a15,15,0,0,0,30,0V80.428A15.0166,15.0166,0,0,0,200.7446,65.4285Zm7,32.2769a7,7,0,0,1-14,0V80.428a7,7,0,0,1,14,0Z"/>
    <path class="cls-2" d="M164.0789,73.4878a7.01,7.01,0,0,1,7.868,6.0752.9894.9894,0,0,0,.9843.865h6.0305a1.0108,1.0108,0,0,0,.9987-1.0971,15.0182,15.0182,0,0,0-15.7163-13.8837A15.2881,15.2881,0,0,0,150,80.8635V97.27a15.2881,15.2881,0,0,0,14.2441,15.4163A15.0183,15.0183,0,0,0,179.96,98.8025a1.0107,1.0107,0,0,0-.9987-1.0971h-6.0305a.9894.9894,0,0,0-.9843.865,7.01,7.01,0,0,1-7.868,6.0757A7.1643,7.1643,0,0,1,158,97.4612V80.6724A7.1639,7.1639,0,0,1,164.0789,73.4878Z"/>
    <path class="cls-2" d="M246.9221,92.9944a12.1584,12.1584,0,0,0,7.1843-11.0771V78.2161A12.1494,12.1494,0,0,0,241.957,66.0667H225a1,1,0,0,0-1,1v44a1,1,0,0,0,1,1h6a1,1,0,0,0,1-1v-17h6.6216l7.9153,17.4138a1,1,0,0,0,.91.5862h6.591a1,1,0,0,0,.91-1.4138Zm-.8157-11.0771a4.1538,4.1538,0,0,1-4.1489,4.1494h-9.8511v-12h9.8511a4.1538,4.1538,0,0,1,4.1489,4.1494Z"/>
    <path class="cls-2" d="M289,66.0667H263a1,1,0,0,0-1,1v44a1,1,0,0,0,1,1h26a1,1,0,0,0,1-1v-6a1,1,0,0,0-1-1H270v-12h13a1,1,0,0,0,1-1v-6a1,1,0,0,0-1-1H270v-10h19a1,1,0,0,0,1-1v-6A1,1,0,0,0,289,66.0667Z"/>
    <path class="cls-2" d="M327,66.0667h-6a1,1,0,0,0-1,1V89.7142a7.0066,7.0066,0,1,1-14,0V67.0667a1,1,0,0,0-1-1h-6a1,1,0,0,0-1,1V89.7142a15.0031,15.0031,0,1,0,30,0V67.0667A1,1,0,0,0,327,66.0667Z"/>
    <rect class="cls-2" x="336" y="66.0667" width="8" height="38" rx="1"/>
    <path class="cls-2" d="M410.8105,79.72a3.4937,3.4937,0,0,0-3.1992,0,2.656,2.656,0,0,0-1.0644,1.1016,3.4924,3.4924,0,0,0-.375,1.6484v5.2422a3.4925,3.4925,0,0,0,.375,1.6485,2.6557,2.6557,0,0,0,1.0644,1.1015,3.4937,3.4937,0,0,0,3.1992,0A2.6553,2.6553,0,0,0,411.875,89.36a3.4926,3.4926,0,0,0,.3755-1.6485V82.47a3.4925,3.4925,0,0,0-.3755-1.6484A2.6556,2.6556,0,0,0,410.8105,79.72Z"/>
    <path class="cls-2" d="M392.7,79.64a1.6475,1.6475,0,0,0-.9228-.2588h-4.1958V83.59h4.1958a1.6259,1.6259,0,0,0,.9106-.2588,1.6754,1.6754,0,0,0,.6089-.7383,2.8243,2.8243,0,0,0,.2275-1.1074,2.6849,2.6849,0,0,0-.2153-1.1075A1.6746,1.6746,0,0,0,392.7,79.64Z"/>
    <path class="cls-2" d="M374.0811,79.6707a2.0524,2.0524,0,0,0-1.0767-.2773h-3.8882v4.4541h3.8882a2.0281,2.0281,0,0,0,1.0644-.2764,1.8993,1.8993,0,0,0,.72-.7812,2.5037,2.5037,0,0,0,.2583-1.1573,2.6239,2.6239,0,0,0-.252-1.1748A1.8476,1.8476,0,0,0,374.0811,79.6707Z"/>
    <path class="cls-2" d="M424,66.0667H358a2,2,0,0,0-2,2v33.9161a2,2,0,0,0,2,2h66a2,2,0,0,0,2-2V68.0667A2,2,0,0,0,424,66.0667Zm-45.9043,18.439a4.8219,4.8219,0,0,1-1.9751,1.914,6.187,6.187,0,0,1-2.9468.6768h-3.8022v6.9394H366V76.1453h7.1738a6.1448,6.1448,0,0,1,2.9468.6826,4.85,4.85,0,0,1,1.9751,1.9258,6.2486,6.2486,0,0,1,0,5.752Zm15.8193,9.53-4.0334-7.1982h-2.0452v7.1982h-3.3716V76.1326h7.8379a4.9978,4.9978,0,0,1,2.5967.6641,4.5011,4.5011,0,0,1,1.7349,1.8769,6.7322,6.7322,0,0,1,0,5.6231,4.4808,4.4808,0,0,1-1.7412,1.8769,4.6347,4.6347,0,0,1-1.1708.4848L398,94.0359ZM416,87.6248a7.1411,7.1411,0,0,1-.812,3.4639,5.6857,5.6857,0,0,1-2.2949,2.3135,7.5842,7.5842,0,0,1-6.8535,0,5.6853,5.6853,0,0,1-2.295-2.3135,7.1411,7.1411,0,0,1-.812-3.4639V82.5555a7.1438,7.1438,0,0,1,.812-3.4639,5.6968,5.6968,0,0,1,2.295-2.3135,7.5924,7.5924,0,0,1,6.8535,0,5.6972,5.6972,0,0,1,2.2949,2.3135A7.1438,7.1438,0,0,1,416,82.5555Z"/>
  </g>
</svg>
