<?xml version="1.0" encoding="utf-8"?>
<!-- Generator: Adobe Illustrator 17.0.0, SVG Export Plug-In . SVG Version: 6.00 Build 0)  -->
<!DOCTYPE svg PUBLIC "-//W3C//DTD SVG 1.1//EN" "http://www.w3.org/Graphics/SVG/1.1/DTD/svg11.dtd">
<svg version="1.1" id="Warstwa_1" xmlns="http://www.w3.org/2000/svg" xmlns:xlink="http://www.w3.org/1999/xlink" x="0px" y="0px"
	 width="707.1px" height="200px" viewBox="0 0 707.1 200" enable-background="new 0 0 707.1 200" xml:space="preserve">
<polygon fill="#61DAFB" points="0,150 0,50 86.6,0 173.2,50 173.2,150 86.6,200 "/>
<polygon fill="#FFFFFF" points="86.6,133.3 57.7,116.7 57.7,83.3 86.6,66.7 115.5,83.3 144.3,66.7 86.6,33.3 28.9,66.7 28.9,133.3
	86.6,166.7 144.3,133.3 115.5,116.7 "/>
<polygon opacity="0.04" stroke="#FFFFFF" stroke-miterlimit="10" enable-background="new    " points="0,50 86.6,100 86.6,0 "/>
<polygon opacity="0.04" stroke="#FFFFFF" stroke-miterlimit="10" enable-background="new    " points="0,150 86.6,200 86.6,100 "/>
<polygon opacity="0.08" stroke="#FFFFFF" stroke-miterlimit="10" enable-background="new    " points="86.6,100 173.2,150 173.2,50
	"/>
<polygon fill-opacity="0" points="86.6,100 0,50 0,150 "/>
<polygon opacity="0.08" stroke="#FFFFFF" stroke-miterlimit="10" enable-background="new    " points="173.2,150 86.6,100 86.6,200
	"/>
<polygon opacity="0.08" stroke="#FFFFFF" stroke-miterlimit="10" enable-background="new    " points="173.2,50 86.6,0 86.6,100 "/>
<g>
	<path fill="#333333" d="M290.4,127.3c1,0,1.8,0.4,2.6,1.1l7.2,7.8c-4,4.9-8.8,8.7-14.6,11.3c-5.8,2.6-12.7,3.9-20.8,3.9
		c-7.2,0-13.8-1.2-19.5-3.7c-5.8-2.5-10.7-5.9-14.8-10.3c-4.1-4.4-7.2-9.7-9.4-15.8c-2.2-6.1-3.3-12.8-3.3-20
		c0-7.3,1.2-14.1,3.6-20.1c2.4-6.1,5.8-11.4,10.3-15.8c4.4-4.4,9.7-7.8,15.8-10.3s12.9-3.7,20.4-3.7c7.2,0,13.6,1.2,19,3.5
		s10.1,5.4,13.9,9.2l-6.1,8.4c-0.4,0.5-0.8,1-1.4,1.4s-1.3,0.6-2.3,0.6s-2.1-0.4-3.2-1.2s-2.5-1.7-4.1-2.6c-1.7-0.9-3.8-1.8-6.3-2.6
		c-2.5-0.8-5.8-1.2-9.7-1.2c-4.6,0-8.8,0.8-12.7,2.4c-3.8,1.6-7.2,3.9-9.9,6.9s-4.9,6.6-6.5,10.8c-1.6,4.3-2.3,9-2.3,14.3
		c0,5.5,0.8,10.4,2.3,14.6c1.6,4.3,3.7,7.9,6.3,10.8c2.7,2.9,5.8,5.2,9.4,6.7c3.6,1.6,7.5,2.3,11.6,2.3c2.5,0,4.7-0.1,6.7-0.4
		c2-0.3,3.8-0.7,5.5-1.3s3.3-1.3,4.8-2.3c1.5-0.9,3-2.1,4.5-3.4c0.4-0.4,0.9-0.7,1.4-1C289.3,127.4,289.9,127.3,290.4,127.3z"/>
	<path fill="#333333" d="M407.5,101.5c0,7.2-1.2,13.8-3.6,19.9s-5.7,11.4-10.1,15.8c-4.3,4.5-9.5,7.9-15.6,10.4s-12.8,3.7-20.2,3.7
		c-7.4,0-14.1-1.2-20.2-3.7s-11.3-6-15.7-10.4c-4.3-4.5-7.7-9.7-10.1-15.8c-2.4-6.1-3.6-12.7-3.6-19.9c0-7.2,1.2-13.8,3.6-19.9
		s5.7-11.4,10.1-15.8c4.3-4.5,9.6-7.9,15.7-10.4s12.8-3.7,20.2-3.7c7.4,0,14.1,1.3,20.2,3.8s11.3,6,15.6,10.4
		c4.3,4.4,7.7,9.7,10.1,15.8C406.3,87.7,407.5,94.3,407.5,101.5z M388.9,101.5c0-5.4-0.7-10.2-2.1-14.4c-1.4-4.3-3.5-7.9-6.1-10.8
		c-2.7-3-5.9-5.2-9.7-6.8c-3.8-1.6-8.1-2.4-12.9-2.4s-9.1,0.8-12.9,2.4s-7.1,3.8-9.8,6.8c-2.7,3-4.7,6.6-6.2,10.8
		c-1.4,4.3-2.2,9.1-2.2,14.4c0,5.4,0.7,10.2,2.2,14.4c1.4,4.3,3.5,7.9,6.2,10.8s5.9,5.2,9.8,6.8c3.8,1.6,8.1,2.4,12.9,2.4
		s9.1-0.8,12.9-2.4c3.8-1.6,7-3.8,9.7-6.8c2.7-2.9,4.7-6.5,6.1-10.8C388.2,111.7,388.9,106.9,388.9,101.5z"/>
	<path fill="#333333" d="M440.6,112.2v38.1h-18.2V52.7h29.8c6.7,0,12.4,0.7,17.1,2.1c4.7,1.4,8.6,3.3,11.7,5.8
		c3,2.5,5.3,5.4,6.7,8.9c1.4,3.4,2.1,7.2,2.1,11.4c0,3.3-0.5,6.4-1.5,9.3s-2.4,5.6-4.2,8c-1.8,2.4-4.1,4.5-6.8,6.3
		c-2.7,1.8-5.7,3.2-9.1,4.3c2.3,1.3,4.3,3.2,5.9,5.6l24.4,36h-16.3c-1.6,0-2.9-0.3-4-0.9c-1.1-0.6-2-1.5-2.8-2.7l-20.5-31.3
		c-0.8-1.2-1.6-2-2.5-2.5s-2.3-0.7-4.1-0.7h-7.7V112.2z M440.6,99.1h11.3c3.4,0,6.4-0.4,8.9-1.3s4.6-2,6.3-3.5
		c1.6-1.5,2.9-3.3,3.7-5.4c0.8-2.1,1.2-4.3,1.2-6.8c0-4.9-1.6-8.8-4.9-11.4c-3.3-2.7-8.2-4-15-4h-11.6v32.4
		C440.5,99.1,440.6,99.1,440.6,99.1z"/>
	<path fill="#333333" d="M571.8,52.7v14.4h-43.3v27.1h34.1v14h-34.1v27.6h43.3v14.5h-61.6V52.7H571.8z"/>
	<path fill="#61DAFB" d="M626.8,135.7c3.5,0,6.6-0.6,9.4-1.8c2.8-1.2,5.1-2.8,7-4.9c1.9-2.1,3.4-4.7,4.4-7.7s1.5-6.4,1.5-10.1V52.7
		h18.2v58.5c0,5.8-0.9,11.2-2.8,16.1c-1.9,4.9-4.6,9.2-8.1,12.8c-3.5,3.6-7.8,6.4-12.8,8.4s-10.6,3-16.9,3s-11.9-1-16.9-3
		s-9.2-4.8-12.7-8.4c-3.5-3.6-6.2-7.8-8-12.8c-1.9-4.9-2.8-10.3-2.8-16.1V52.7h18.2v58.4c0,3.7,0.5,7.1,1.5,10.1s2.5,5.6,4.4,7.7
		s4.2,3.8,7,5C620.1,135.1,623.3,135.7,626.8,135.7z"/>
	<path fill="#61DAFB" d="M706.2,150.3H688V52.7h18.2V150.3z"/>
</g>
<g>
	<path fill="#AAAAAA" d="M599.558,183.654v15.016h-7.936v-42.657h13.895c2.852,0,5.32,0.335,7.404,1.003
		c2.085,0.669,3.806,1.604,5.163,2.803c1.356,1.2,2.359,2.636,3.009,4.307c0.649,1.672,0.974,3.501,0.974,5.487
		c0,2.065-0.345,3.958-1.032,5.679c-0.689,1.722-1.722,3.201-3.098,4.439c-1.377,1.239-3.098,2.203-5.163,2.892
		c-2.064,0.688-4.483,1.032-7.257,1.032h-5.959V183.654z M599.558,177.459h5.959c1.455,0,2.724-0.182,3.806-0.545
		c1.081-0.364,1.977-0.886,2.685-1.563c0.708-0.679,1.239-1.505,1.593-2.479s0.531-2.06,0.531-3.26c0-1.141-0.177-2.173-0.531-3.098
		c-0.354-0.924-0.885-1.711-1.593-2.359c-0.708-0.649-1.604-1.146-2.685-1.49c-1.082-0.344-2.351-0.517-3.806-0.517h-5.959V177.459z"/>
	<path fill="#AAAAAA" d="M636.433,182.002v16.668h-7.936v-42.657h13.01c2.91,0,5.403,0.301,7.479,0.9
		c2.074,0.6,3.775,1.44,5.104,2.521c1.327,1.082,2.301,2.375,2.92,3.88c0.62,1.504,0.93,3.161,0.93,4.971
		c0,1.436-0.212,2.793-0.635,4.07c-0.423,1.279-1.032,2.439-1.829,3.481c-0.796,1.043-1.779,1.957-2.949,2.743
		c-1.171,0.787-2.503,1.416-3.998,1.889c1.004,0.57,1.868,1.386,2.597,2.448l10.679,15.753h-7.139c-0.688,0-1.273-0.138-1.756-0.413
		c-0.481-0.275-0.89-0.668-1.224-1.18l-8.969-13.659c-0.334-0.511-0.703-0.874-1.105-1.091c-0.403-0.217-0.999-0.325-1.785-0.325
		L636.433,182.002L636.433,182.002z M636.433,176.309h4.956c1.494,0,2.798-0.187,3.909-0.561c1.11-0.373,2.025-0.89,2.743-1.549
		c0.718-0.658,1.254-1.44,1.607-2.345c0.354-0.904,0.531-1.897,0.531-2.979c0-2.163-0.713-3.825-2.139-4.985
		s-3.604-1.741-6.534-1.741h-5.074L636.433,176.309L636.433,176.309z"/>
	<path fill="#AAAAAA" d="M706.378,177.342c0,3.127-0.521,6.022-1.563,8.688c-1.043,2.665-2.508,4.971-4.396,6.918
		c-1.888,1.946-4.159,3.466-6.814,4.558c-2.655,1.091-5.596,1.637-8.82,1.637c-3.226,0-6.171-0.546-8.836-1.637
		c-2.665-1.092-4.946-2.611-6.844-4.558c-1.898-1.947-3.368-4.253-4.41-6.918c-1.043-2.665-1.563-5.561-1.563-8.688
		s0.521-6.023,1.563-8.688c1.042-2.664,2.512-4.971,4.41-6.917c1.897-1.947,4.179-3.467,6.844-4.559
		c2.665-1.091,5.61-1.637,8.836-1.637c3.225,0,6.165,0.551,8.82,1.652s4.927,2.62,6.814,4.558s3.353,4.238,4.396,6.902
		C705.857,171.318,706.378,174.215,706.378,177.342z M698.236,177.342c0-2.341-0.31-4.44-0.929-6.299s-1.51-3.437-2.67-4.734
		s-2.571-2.291-4.233-2.979s-3.535-1.032-5.619-1.032c-2.085,0-3.964,0.344-5.635,1.032c-1.672,0.688-3.093,1.682-4.263,2.979
		c-1.171,1.298-2.07,2.876-2.699,4.734c-0.63,1.858-0.944,3.958-0.944,6.299c0,2.34,0.314,4.439,0.944,6.298
		c0.629,1.858,1.528,3.433,2.699,4.72c1.17,1.289,2.591,2.277,4.263,2.965c1.671,0.688,3.55,1.032,5.635,1.032
		c2.084,0,3.957-0.344,5.619-1.032c1.662-0.688,3.073-1.676,4.233-2.965c1.16-1.287,2.051-2.861,2.67-4.72
		S698.236,179.682,698.236,177.342z"/>
</g>
</svg>
